<?xml version="1.0" encoding="UTF-8"?>
<svg id="Layer_1" xmlns="http://www.w3.org/2000/svg" version="1.1" viewBox="0 0 50.8 50.8">
  <!-- Generator: Adobe Illustrator 29.6.1, SVG Export Plug-In . SVG Version: 2.1.1 Build 9)  -->
  <defs>
    <style>
      .st0 {
        fill: #f6821e;
      }

      .st0, .st1, .st2, .st3 {
        fill-rule: evenodd;
      }

      .st1 {
        fill: #fff6f0;
      }

      .st2 {
        fill: #333;
      }

      .st3 {
        fill: #c4c4c4;
      }
    </style>
  </defs>
  <path class="st1" d="M37.6,13.3c-3.2-3.2-7.6-5-12.2-5s-8.9,1.8-12.2,5c-3.2,3.2-5,7.6-5,12.2v17.2h34.4v-17.2c0-4.6-1.8-8.9-5-12.2Z"/>
  <path class="st3" d="M5.2,29.1c.3-.8,1.2-1.3,2-1l37.5,12.5c.8.3,1.3,1.2,1,2-.3.8-1.2,1.3-2,1L6.2,31.1c-.8-.3-1.3-1.2-1-2Z"/>
  <path class="st2" d="M33.8,19.7c.9,0,1.6.7,1.6,1.6v2.1c0,.9-.7,1.6-1.6,1.6s-1.6-.7-1.6-1.6v-2.1c0-.9.7-1.6,1.6-1.6Z"/>
  <path class="st2" d="M24.9,23.3c2.2.4,3.9,1.2,3.8,1.6l-.2,1c0,.4-1.9.4-4.1,0s-3.9-1.2-3.8-1.6l.2-1c0-.4,1.9-.4,4.1,0Z"/>
  <path class="st2" d="M17.1,15.5c.9,0,1.6.7,1.6,1.6v2.1c0,.9-.7,1.6-1.6,1.6s-1.6-.7-1.6-1.6v-2.1c0-.9.7-1.6,1.6-1.6Z"/>
  <path class="st0" d="M11.1,11.1c3.8-3.8,9-5.9,14.4-5.9s10.6,2.1,14.4,5.9c3.8,3.8,5.9,9,5.9,14.4v18.8c0,.9-.7,1.6-1.6,1.6H6.7c-.9,0-1.6-.7-1.6-1.6v-18.8c0-5.4,2.1-10.6,5.9-14.4ZM25.4,8.2c-4.6,0-8.9,1.8-12.2,5s-5,7.6-5,12.2v17.2h34.4v-17.2c0-4.6-1.8-8.9-5-12.2-3.2-3.2-7.6-5-12.2-5Z"/>
</svg>